# xmcd
#
# Track frame offsets:
#	180
#	15372
#	33905
#	51130
#	67802
#
# Disc length: 1113 seconds
#
# Revision: 1
# Processed by: cddbd v1.5.2PL0 Copyright (c) Steve Scherf et al.
# Submitted via: audiograbber 1.83.01
#
DISCID=2f045705
DTITLE=Roger Colette - dream
DYEAR=1900
DGENRE=Country
TTITLE0=Roger Colette - La Fille Du Bar
TTITLE1=Roger Colette - Elle est Amoureuse
TTITLE2=Roger Colette/Kimera - Un Mot D'Amour
TTITLE3=Roger Colette - Oh Mon Amour
TTITLE4=Udo Jürgens/Roger Colette/Wolfgang Hofer - Marabella
EXTD=
EXTT0=
EXTT1=
EXTT2=
EXTT3=
EXTT4=
PLAYORDER=
